<svg xmlns="http://www.w3.org/2000/svg" viewBox="0 0 100 100">
  <path d="M30 20 Q20 10 15 25 Q10 40 25 45 Q15 50 20 65 Q25 80 40 75 Q50 90 60 75 Q75 80 80 65 Q85 50 75 45 Q90 40 85 25 Q80 10 70 20 Q60 15 50 25 Q40 15 30 20" fill="#D97706"/>
  <circle cx="38" cy="45" r="5" fill="#1F2937"/>
  <circle cx="62" cy="45" r="5" fill="#1F2937"/>
  <ellipse cx="50" cy="58" rx="8" ry="5" fill="#1F2937"/>
  <path d="M42 65 Q50 72 58 65" stroke="#1F2937" stroke-width="2" fill="none" stroke-linecap="round"/>
</svg>
